#!OML:ASF E:\VariousWalksJay\Project 1\Capture day 1\Session 1\Actor2.ASF
:FULLY-SPECIFIED
:DEGREES
766
root 3.99591 15.125 9.37295 8.6314 -43.1152 -0.549855
lowerback 35.4933 -2.15386 1.78145
upperback 19.2338 -3.42576 -4.35058
thorax 2.90764 -1.72273 -4.55267
lowerneck 7.24147 0.889218 0.797456
upperneck -17.1505 1.67135 2.38785
head -6.41517 0.52612 0.505126
rclavicle 2.8625e-014 -1.17681e-013
rhumerus -31.9759 15.9805 -86.4562
rradius 82.1457
rwrist 4.49294
rhand -29.8761 -7.14864
rfingers 7.12502
rthumb -3.19784 -37.1044
lclavicle 2.8625e-014 -1.17681e-013
lhumerus 34.7563 -16.3587 57.1069
lradius 89.2131
lwrist 58.1534
lhand -40.0903 10.3906
lfingers 7.12502
lthumb -13.0548 39.962
rfemur -81.9838 6.01603 19.3103
rtibia 85.4205
rfoot -20.5234 -6.51245
rtoes -31.6945
lfemur -48.5467 10.7899 -32.4698
ltibia 68.6791
lfoot -29.6976 6.52574
ltoes -2.66347
767
root 3.95753 15.098 9.4347 8.45748 -43.0721 -0.389818
lowerback 35.4634 -2.09774 1.73225
upperback 19.2718 -3.37208 -4.36987
thorax 2.96494 -1.69701 -4.5659
lowerneck 7.29466 0.848978 0.782626
upperneck -17.2006 1.62559 2.44565
head -6.44068 0.498767 0.52939
rclavicle -9.54166e-015 5.48646e-014
rhumerus -31.9851 16.123 -86.5528
rradius 81.9089
rwrist 4.4314
rhand -29.8359 -7.18428
rfingers 7.12502
rthumb -3.15898 -37.1406
lclavicle -9.54166e-015 5.48646e-014
lhumerus 35.4127 -16.2306 57.0269
lradius 88.5981
lwrist 58.2013
lhand -40.0112 10.3876
lfingers 7.12502
lthumb -12.9786 39.9639
rfemur -81.4033 6.18678 19.452
rtibia 82.4418
rfoot -20.5069 -6.89911
rtoes -31.5063
lfemur -48.2906 10.1724 -32.5084
ltibia 69.0391
lfoot -30.1118 7.25862
ltoes -3.077
768
root 3.91804 15.0739 9.49785 8.30723 -43.0403 -0.254171
lowerback 35.391 -2.03461 1.68852
upperback 19.3075 -3.30782 -4.38273
thorax 3.0351 -1.66589 -4.5796
lowerneck 7.33845 0.808456 0.784634
upperneck -17.2257 1.57938 2.49313
head -6.45634 0.471473 0.54765
rclavicle 3.57812e-014 1.98785e-015
rhumerus -31.9894 16.2788 -86.6534
rradius 81.6618
rwrist 4.3761
rhand -29.8075 -7.22176
rfingers 7.12502
rthumb -3.13153 -37.1785
lclavicle 3.57812e-014 1.98785e-015
lhumerus 36.0265 -16.1369 56.9615
lradius 87.9776
lwrist 58.2191
lhand -39.9139 10.3894
lfingers 7.12502
lthumb -12.8848 39.9716
rfemur -80.7202 6.33872 19.6264
rtibia 79.401
rfoot -20.477 -7.22035
rtoes -31.2508
lfemur -48.018 9.57003 -32.5346
ltibia 69.3672
lfoot -30.5181 7.97156
ltoes -3.45653
769
root 3.87715 15.0523 9.56278 8.17288 -43.0107 -0.137787
lowerback 35.2771 -1.97039 1.6576
upperback 19.3433 -3.23802 -4.39222
thorax 3.11947 -1.63095 -4.59934
lowerneck 7.37592 0.766279 0.805593
upperneck -17.2286 1.5315 2.53177
head -6.46361 0.443312 0.560087
rclavicle -3.10104e-014 3.06128e-014
rhumerus -31.9863 16.4309 -86.7596
rradius 81.3994
rwrist 4.33815
rhand -29.7813 -7.25425
rfingers 7.12502
rthumb -3.10626 -37.2114
lclavicle -3.10104e-014 3.06128e-014
lhumerus 36.5974 -16.0823 56.911
lradius 87.3549
lwrist 58.2138
lhand -39.8191 10.3653
lfingers 7.12502
lthumb -12.7934 39.9533
rfemur -79.941 6.46119 19.8316
rtibia 76.312
rfoot -20.4107 -7.4841
rtoes -31.018
lfemur -47.723 8.9948 -32.556
ltibia 69.6641
lfoot -30.9135 8.65864
ltoes -3.82406
770
root 3.8349 15.0333 9.62954 8.05484 -42.9842 -0.04092
lowerback 35.1239 -1.90682 1.63522
upperback 19.3779 -3.16598 -4.39909
thorax 3.21589 -1.59418 -4.62252
lowerneck 7.40322 0.726581 0.845952
upperneck -17.2055 1.48726 2.55963
head -6.46066 0.41713 0.565576
rclavicle 8.0309e-014 -4.73108e-014
rhumerus -31.9725 16.5798 -86.8733
rradius 81.1159
rwrist 4.32739
rhand -29.7637 -7.27837
rfingers 7.12502
rthumb -3.08924 -37.2357
lclavicle 8.0309e-014 -4.73108e-014
lhumerus 37.1156 -16.0568 56.876
lradius 86.7318
lwrist 58.1971
lhand -39.7316 10.3363
lfingers 7.12502
lthumb -12.709 39.9296
rfemur -79.0785 6.55527 20.0619
rtibia 73.1891
rfoot -20.2981 -7.66883
rtoes -30.7945
lfemur -47.4074 8.45791 -32.5719
ltibia 69.9304
lfoot -31.3027 9.29108
ltoes -4.14701
